
        <svg xmlns="http://www.w3.org/2000/svg" xmlns:xlink="http://www.w3.org/1999/xlink" version="1.1" width="2761.8066295528643" 
        height="3186.969381303621" viewBox="0 0 2761.8066295528643 3186.969381303621">
			<rect fill="#f5eded" width="2761.8066295528643" height="3186.969381303621"/>
			<g transform="scale(9.348469065181053) translate(10, 10)">
				<defs id="SvgjsDefs1515"></defs><g id="SvgjsG1516" featureKey="symbolContainer" transform="matrix(4.172,0,0,4.172,33,20)" fill="#d72323"><circle cx="25" cy="25" r="25"></circle></g><g id="SvgjsG1517" featureKey="monogramFeature-0" transform="matrix(3.3042420733888602,0,0,3.3042420733888602,66.08727377983342,0.4363720503378943)" fill="#f5eded"><path d="M18.78 54.84 l-8.1 -31.08 l-1.8 -0.6 c-0.48 -0.12 -0.78 -0.6 -0.78 -1.14 l0 -5.88 c0 -0.42 0.42 -1.14 0.9 -1.14 l11.1 0 c0.48 0 0.9 0.66 0.9 1.14 l0 5.94 c0 0.48 -0.36 0.96 -0.84 1.08 l-1.14 0.42 l0 0.06 l3.42 13.26 l3.54 -2.7 l0 0.12 c0 0.06 -0.18 0.78 -0.24 0.84 l-3.18 2.34 s0.12 0.48 0.24 0.78 l2.7 -1.98 l-0.24 0.9 l-2.28 1.68 l0 0.12 l0.18 0.72 l1.8 -1.38 l-0.24 0.9 s0 0.06 -0.06 0.06 l-1.38 1.02 l0.24 0.78 c0.18 -0.12 0.72 -0.54 0.84 -0.6 l0.06 0 c0 0.6 -0.3 0.9 -0.72 1.26 l0.54 2.1 l5.28 -20.34 l-0.06 0 c-0.9 -0.24 -1.98 -0.36 -1.98 -1.56 l0 -5.76 c0 -0.42 0.42 -1.2 0.96 -1.2 l11.04 0 c0.48 0 0.9 0.66 0.9 1.08 l0 6 c0 0.48 -0.36 0.96 -0.78 1.08 l-1.74 0.6 l-8.16 31.02 c-0.12 0.42 -0.48 0.84 -0.96 0.84 l-9 0 c-0.48 0 -0.84 -0.36 -0.96 -0.78 z M4.5 19.380000000000003 l-1.5 1.08 c0 -0.42 0.48 -1.08 0.96 -1.08 l0.54 0 z M3 21.42 l2.76 -2.04 l0.96 0 l-3.72 2.76 l0 -0.72 z M22.5 20.159999999999997 c0.12 -0.12 0.84 -0.66 1.08 -0.78 l0.96 0 l-2.16 1.56 c0 -0.3 0 -0.54 0.12 -0.78 z M22.44 22.619999999999997 l0 -0.72 l3.36 -2.52 l0.72 0 l0 0.18 z M3 23.82 l0 -0.72 l4.08 -3.06 l0 0.72 z M22.44 24.299999999999997 l0 -0.72 l4.08 -3.06 l0 0.72 z M3 25.5 l0 -0.72 l4.08 -3.06 l0 0.72 z M22.44 25.979999999999997 l0 -0.72 l4.08 -3.06 l0 0.72 z M3 26.46 l0 0 l4.14 -3.12 c0.12 0.24 0.12 0.3 0.24 0.48 l-4.2 3.18 c-0.06 0.06 -0.18 -0.48 -0.18 -0.54 z M22.5 26.880000000000003 l4.14 -3.12 c0.24 0.12 0.3 0.24 0.48 0.36 l-4.32 3.24 s-0.06 -0.12 -0.12 -0.12 c0 -0.06 -0.24 -0.36 -0.18 -0.36 z M4.38 27.78 l-0.66 -0.24 l4.38 -3.3 c0.18 0.12 0.6 0.24 0.6 0.24 l0.06 0 z M24.36 27.9 l-0.72 -0.24 l4.32 -3.24 c0.12 0 0.42 0.06 0.54 0.12 c0 0 0 0.24 -0.06 0.24 z M5.58 28.14 l-0.3 -0.12 l4.32 -3.24 l0.06 0 c0.06 -0.06 0.06 0.06 0.06 0.06 c0 0.06 0.12 0.42 0.12 0.54 l-4.14 3.06 c-0.06 -0.06 -0.12 -0.24 -0.12 -0.3 z M24.12 28.98 l4.02 -3 l-0.24 0.9 l-4.02 3 l0 -0.06 s0.18 -0.54 0.24 -0.84 z M5.88 29.28 l4.2 -3.18 l0.12 0.6 c0 0.06 0 0.06 -0.06 0.06 l-4.08 3.12 z M6.24 30.66 l4.2 -3.12 l0.12 0.6 l-4.14 3.12 c-0.06 -0.24 -0.18 -0.54 -0.18 -0.54 l0 -0.06 z M27.36 28.92 l-3.96 3 l0 -0.06 c0 -0.06 0.12 -0.78 0.24 -0.84 l3.96 -2.94 l0 0.06 c0 0.06 -0.18 0.72 -0.24 0.78 z M6.78 32.64 l-0.18 -0.6 l4.14 -3.12 c0.06 0 0.06 0.06 0.06 0.06 l0.12 0.48 l0 0.12 z M23.04 33.06 l4.08 -3 l-0.24 0.9 l-4.02 3 z M7.02 33.42 l4.08 -3.06 l0.06 0 l0.12 0.6 l-4.14 3.12 l-0.18 -0.6 c0 -0.06 0 -0.06 0.06 -0.06 z M7.32 34.86 l4.2 -3.12 c0.06 0.18 0.12 0.48 0.12 0.66 l-4.08 3 c-0.12 -0.18 -0.24 -0.54 -0.24 -0.54 z M26.28 33.06 l-3.96 3 l0 -0.06 s0.12 -0.54 0.24 -0.84 l3.96 -3 s-0.12 0.6 -0.24 0.9 z M7.86 36.84 l-0.18 -0.6 l4.2 -3.12 l0.18 0.6 z M8.1 37.620000000000005 l4.08 -3.06 l0.06 0 l0.18 0.6 l-4.2 3.12 l-0.12 -0.6 l0 -0.06 z M8.52 39 l4.02 -3.06 l0.06 0 l0.18 0.6 l-4.2 3.12 l-0.12 -0.54 c0 -0.06 0 -0.06 0.06 -0.12 z M8.82 40.44 l4.14 -3.06 l0 -0.06 c0.06 0.12 0.18 0.54 0.18 0.6 l-0.06 0.06 l-4.08 3.06 c-0.06 -0.12 -0.18 -0.48 -0.18 -0.6 z M9.18 41.879999999999995 l4.14 -3.12 c0.06 0.12 0.18 0.48 0.18 0.54 l-4.14 3.12 c-0.06 0 -0.06 -0.06 -0.06 -0.06 z M9.66 43.86 l-0.12 -0.66 l4.14 -3.12 l0.18 0.6 z M9.96 44.58 l4.08 -3.12 l0.18 0.66 l-4.2 3.12 c0 -0.18 -0.12 -0.54 -0.12 -0.6 s0 -0.06 0.06 -0.06 z M10.38 46.62 l-0.12 -0.6 l4.14 -3.12 l0.06 0.06 l0.12 0.48 l0 0.06 z M10.68 47.4 l4.14 -3.12 l0.12 0.6 l-4.14 3.12 l-0.18 -0.54 c0 -0.06 0 -0.06 0.06 -0.06 z M10.98 48.84 l4.14 -3.12 l0.06 0 c0.06 0.12 0.12 0.48 0.12 0.54 s0 0.06 -0.06 0.06 l-4.08 3.12 z M11.52 50.82 l-0.18 -0.6 l4.2 -3.12 l0.12 0.6 z M11.76 51.6 l4.08 -3.06 l0.06 0 l0.12 0.54 l0 0.06 l-4.14 3.06 c-0.06 -0.12 -0.12 -0.48 -0.12 -0.6 z M12.12 52.980000000000004 l4.14 -3.06 l0.18 0.6 l-4.14 3.06 l-0.06 0.06 l0 -0.06 l-0.12 -0.48 l0 -0.12 z M12.48 54.42 l4.08 -3.12 l0.06 0 c0.06 0.12 0.12 0.48 0.12 0.6 l-4.08 3.06 c-0.12 -0.12 -0.18 -0.48 -0.18 -0.54 z M12.96 56.46 l-0.18 -0.66 l4.2 -3.12 l0.18 0.6 z M13.2 57.24 c0 0 0 -0.06 0.06 -0.06 l4.08 -3.06 l0.18 0.6 l-4.2 3.12 c0 -0.12 -0.12 -0.54 -0.12 -0.6 z M13.56 58.62 l4.14 -3.12 l0.18 0.54 l-4.2 3.12 c-0.06 -0.24 -0.12 -0.54 -0.12 -0.54 z M14.1 59.82 l4.32 -3.24 c0.3 0 0.6 0.06 0.9 0.06 l-4.5 3.36 c-0.3 0 -0.48 0 -0.72 -0.18 z M17.04 60 l-0.96 0 l4.5 -3.36 l0.96 0 z M18.36 60 l4.44 -3.36 l0.96 0 l-4.44 3.36 l-0.96 0 z M20.58 60 l4.44 -3.36 l0.24 0 c0 0.12 -0.12 0.54 -0.18 0.72 l-3.54 2.64 l-0.96 0 z M23.76 60 l-0.96 0 l1.98 -1.5 l-0.18 0.72 c-0.06 0.12 -0.06 0.24 -0.18 0.24 z"></path></g><g id="SvgjsG1518" featureKey="nameFeature-0" transform="matrix(2.5681481966216237,0,0,2.5681481966216237,-2.054519047132694,218.18223143724842)" fill="#111111"><path d="M6.44 40 l-5.64 -28 l5.16 0 l3.96 19.76 l4 -19.76 l5.12 0 l-5.64 28 l-6.96 0 z M24.532 40 l5.64 -28 l6.96 0 l5.64 28 l-5.12 0 l-1.24 -6.16 l-5.48 0 l-1.24 6.16 l-5.16 0 z M31.932 28.8 l3.44 0 l-1.72 -8.56 z M52.784 40 l-3.72 -3.72 l0 -24.28 l5.04 0 l0 22.2 l0.76 0.76 l4.64 0 l0.76 -0.76 l0 -22.2 l5.04 0 l0 24.28 l-3.72 3.72 l-8.8 0 z M72.39599999999999 40 l0 -28 l5.04 0 l0 22.96 l7.84 0 l0 5.04 l-12.88 0 z M97.688 40 l0 -22.96 l-5.32 0 l0 -5.04 l15.68 0 l0 5.04 l-5.32 0 l0 22.96 l-5.04 0 z"></path></g>
			</g>
		</svg>
	